<svg width="36" height="36" viewBox="0 0 36 36" fill="none" xmlns="http://www.w3.org/2000/svg">
<path fill-rule="evenodd" clip-rule="evenodd" d="M18.0137 21.2305L26.096 29.3036C26.5249 29.732 27.1066 29.9727 27.7131 29.9727C28.3196 29.9727 28.9013 29.732 29.3302 29.3036C29.7591 28.8752 30 28.2942 30 27.6884C30 27.0825 29.7591 26.5015 29.3302 26.0731L21.2448 18L29.3287 9.92686C29.5409 9.71474 29.7093 9.46294 29.8241 9.18584C29.9389 8.90874 29.998 8.61175 29.9979 8.31185C29.9979 8.01194 29.9387 7.71498 29.8237 7.43793C29.7087 7.16088 29.5403 6.90916 29.3279 6.69715C29.1155 6.48513 28.8635 6.31697 28.586 6.20227C28.3086 6.08756 28.0113 6.02856 27.711 6.02863C27.4108 6.0287 27.1135 6.08784 26.8361 6.20268C26.5588 6.31751 26.3068 6.48579 26.0945 6.69791L18.0137 14.771L9.93131 6.69791C9.72053 6.47971 9.46834 6.30562 9.18948 6.18582C8.91061 6.06601 8.61065 6.00287 8.3071 6.0001C8.00355 5.99732 7.70248 6.05496 7.42147 6.16964C7.14045 6.28433 6.88512 6.45377 6.67036 6.66808C6.45561 6.88239 6.28574 7.13727 6.17065 7.41785C6.05557 7.69844 5.99758 7.99911 6.00008 8.30232C6.00257 8.60553 6.06549 8.9052 6.18518 9.18386C6.30486 9.46252 6.4789 9.71458 6.69715 9.92534L14.7826 18L6.69868 26.0747C6.48043 26.2854 6.30638 26.5375 6.1867 26.8161C6.06702 27.0948 6.00409 27.3945 6.0016 27.6977C5.99911 28.0009 6.05709 28.3016 6.17218 28.5821C6.28726 28.8627 6.45713 29.1176 6.67189 29.3319C6.88664 29.5462 7.14198 29.7157 7.42299 29.8304C7.704 29.945 8.00507 30.0027 8.30862 29.9999C8.61218 29.9971 8.91214 29.934 9.191 29.8142C9.46986 29.6944 9.72205 29.5203 9.93284 29.3021L18.0137 21.2305Z" fill="currentColor"/>
</svg>
