<svg width="30" height="19" viewBox="0 0 30 19" fill="none" xmlns="http://www.w3.org/2000/svg">
<path d="M28.7945 18.9985H25.5097C24.2675 18.9985 23.8932 17.9258 21.6664 15.5503C19.7203 13.5508 18.8984 13.3022 18.4061 13.3022C17.7252 13.3022 17.5395 13.5017 17.5395 14.5007V17.6496C17.5395 18.5013 17.2804 19 15.1933 19C13.1684 18.855 11.2048 18.1992 9.46426 17.0867C7.7237 15.9741 6.25597 14.4367 5.18197 12.6009C2.63275 9.21666 0.858492 5.24556 0 1.00277C0 0.477949 0.187127 0.00223781 1.12564 0.00223781H4.40756C5.25107 0.00223781 5.55479 0.402757 5.88586 1.32809C7.47932 6.32766 10.1984 10.6766 11.3025 10.6766C11.7257 10.6766 11.9099 10.4771 11.9099 9.35227V4.20231C11.7703 1.85291 10.6 1.65495 10.6 0.804809C10.6148 0.58052 10.7111 0.371219 10.8683 0.221361C11.0255 0.0715041 11.2314 -0.00710271 11.4421 0.00223781H16.601C17.3064 0.00223781 17.5395 0.376669 17.5395 1.27592V8.22744C17.5395 8.97784 17.8418 9.22643 18.0549 9.22643C18.4781 9.22643 18.8034 8.97784 19.5792 8.15225C21.2416 5.98954 22.6003 3.58068 23.6125 1.00123C23.7157 0.691197 23.9113 0.425762 24.1695 0.245601C24.4276 0.06544 24.7341 -0.0195086 25.0419 0.00377225H28.3253C29.3098 0.00377225 29.5185 0.52859 29.3098 1.27745C28.1153 4.12911 26.6377 6.83615 24.9023 9.35227C24.5482 9.92772 24.4071 10.227 24.9023 10.9022C25.2276 11.427 26.3791 12.4521 27.1521 13.4265C28.2778 14.6235 29.2119 16.0076 29.9187 17.5238C30.2008 18.4997 29.7316 18.9985 28.7945 18.9985Z" fill="currentColor"/>
</svg>
