<svg width="36" height="36" viewBox="0 0 36 36" fill="none" xmlns="http://www.w3.org/2000/svg">
<path d="M17.9971 9.35156C20.5269 7.00999 23.4034 6.30643 25.8242 7.26465C28.4749 8.31264 30.1503 11.1822 30.1504 14.9736C30.1503 17.4128 28.8636 19.7976 27.2861 21.8301C25.7295 23.8356 23.7834 25.6323 22.1387 26.9902L22.1416 26.9932L22.0146 27.0977C20.6086 28.2522 19.5795 29.1504 18 29.1504C16.4205 29.1504 15.3922 28.2521 13.9863 27.0977C12.3166 25.7281 10.3109 23.8886 8.71387 21.8311C7.1364 19.7985 5.84961 17.4137 5.84961 14.9756C5.84968 11.183 7.52533 8.31377 10.1748 7.26465C12.5945 6.30799 15.4682 7.01356 17.9971 9.35156ZM25.1045 9.11914C23.4326 8.45749 21.0516 8.91542 18.7217 11.4326C18.6296 11.5321 18.5177 11.6116 18.3936 11.666C18.2689 11.7207 18.1349 11.748 18 11.748C17.8651 11.748 17.7311 11.7207 17.6064 11.666C17.513 11.625 17.4266 11.5699 17.3506 11.5029L17.3447 11.4971L17.2842 11.4375L17.2793 11.4336L17.0596 11.2012C14.8001 8.88706 12.5154 8.47903 10.8955 9.12012C9.21894 9.78473 7.82429 11.7406 7.82422 14.9756C7.82422 16.7416 8.78078 18.6869 10.2686 20.6035C11.7368 22.4962 13.6163 24.2288 15.2305 25.5518C16.0105 26.1912 16.5155 26.5931 16.9248 26.8369C17.3256 27.0756 17.6268 27.1582 18 27.1582C18.3731 27.1582 18.6745 27.0758 19.0752 26.8369C19.4845 26.5929 19.9895 26.1902 20.7695 25.5508C22.3837 24.2278 24.2632 22.4952 25.7314 20.6025C27.2181 18.6859 28.1757 16.7418 28.1758 14.9736C28.1757 11.7397 26.781 9.78264 25.1045 9.11914ZM23.0234 11.3652C23.57 11.3653 24.0106 11.8129 24.0107 12.3613V13.6221H25.2559C25.8024 13.6221 26.2429 14.0688 26.2432 14.6172V14.6182C26.2426 15.1662 25.8023 15.6133 25.2559 15.6133H24.0107V16.874C24.0103 17.4221 23.5699 17.87 23.0234 17.8701C22.4769 17.8701 22.0366 17.4221 22.0361 16.874V15.6133H20.791C20.2445 15.6133 19.8043 15.1662 19.8037 14.6182V14.6172C19.8039 14.0688 20.2445 13.6221 20.791 13.6221H22.0361V12.3613C22.0363 11.8128 22.4768 11.3652 23.0234 11.3652Z" fill="white" stroke="white" stroke-width="0.3" stroke-linecap="round"/>
</svg>
