<svg width="36" height="36" viewBox="0 0 36 36" fill="none" xmlns="http://www.w3.org/2000/svg">
<path d="M25.8601 8C27.1172 8.00028 27.2713 10.0511 27.2713 12.1836V14.6432C27.27 15.2903 28.3452 17.2704 27.4264 16.7415C28.5132 18.0251 28.6239 19.5209 28.6082 20.9699C28.904 21.0566 29.1982 21.1497 29.4899 21.2493C30.3864 21.5564 31.3398 21.9478 31.769 22.2261C31.9809 22.3706 32.1281 22.5922 32.1791 22.8439C32.23 23.0955 32.1811 23.3574 32.042 23.5731C31.9028 23.7887 31.6844 23.9412 31.4344 23.9987C31.1841 24.0559 30.9204 24.0132 30.7012 23.8794C30.4946 23.7467 29.7539 23.4199 28.853 23.1117L28.5531 23.013C28.4927 23.5813 28.3416 24.1029 28.1172 24.5754L28.1493 24.5921C28.6129 24.8434 29.0644 25.1167 29.5028 25.4098L29.6515 25.5073C29.8708 25.6489 30.0246 25.8723 30.0796 26.1276C30.1344 26.3827 30.0853 26.6493 29.9437 26.8685C29.802 27.0874 29.5797 27.2416 29.3247 27.2965C29.0695 27.3515 28.8031 27.3023 28.5838 27.1607L28.4108 27.0479C28.0894 26.8379 27.6776 26.5689 27.229 26.3327C27.1231 26.2767 27.0215 26.2256 26.9252 26.1802C24.6546 28.3103 20.5769 29 18.1094 29C15.6419 29 11.5642 28.3103 9.29364 26.1802C9.19652 26.2256 9.09488 26.2767 8.98988 26.3327C8.54128 26.5689 8.12955 26.8381 7.8081 27.0479L7.63636 27.1607C7.41705 27.3024 7.14948 27.3515 6.89423 27.2965C6.63927 27.2416 6.41676 27.0874 6.27515 26.8685C6.13356 26.6493 6.08455 26.3827 6.13928 26.1276C6.19417 25.8724 6.34811 25.6489 6.56738 25.5073L6.71606 25.4098C7.03371 25.2024 7.53293 24.8755 8.07086 24.5921L8.10163 24.5754C7.87719 24.1029 7.72621 23.5813 7.66584 23.013L7.36719 23.1117C6.46587 23.42 5.72402 23.7469 5.51892 23.8794C5.29976 24.021 5.03318 24.07 4.77808 24.0153C4.52289 23.9604 4.2994 23.8064 4.15772 23.5873C4.01614 23.3681 3.96715 23.1015 4.02185 22.8463C4.07672 22.5912 4.23082 22.3677 4.44995 22.2261C4.87914 21.9478 5.83242 21.5564 6.73017 21.2493C7.02018 21.1509 7.31808 21.0552 7.61071 20.9712C7.59628 19.5222 7.7058 18.0251 8.7912 16.7415C7.87245 17.2704 8.95149 15.2903 8.94886 14.6445V12.1836C8.94887 10.0512 9.10321 8.0005 10.3588 8C11.6148 8 14.1305 11.3633 14.9679 11.3633C15.9728 11.3632 16.1673 11.1582 18.1094 11.1582C20.0519 11.1582 20.2469 11.3633 21.2536 11.3633C22.0902 11.3618 24.6043 8 25.8601 8ZM23.6875 17.1875C22.3743 17.1875 21.214 17.8323 20.4986 18.8204C19.5908 18.5226 18.6282 18.5764 17.7198 18.864C17.0073 17.8513 15.8324 17.1875 14.5001 17.1875C12.3254 17.1875 10.5626 18.9504 10.5626 21.125C10.5626 23.2997 12.3254 25.0625 14.5001 25.0625C16.6747 25.0625 18.4375 23.2997 18.4375 21.125C18.4375 20.7564 18.3824 20.4008 18.2876 20.0624C18.8529 19.9087 19.4036 19.8896 19.9103 20.0163C19.8072 20.3681 19.75 20.7398 19.75 21.125C19.75 23.2997 21.513 25.0625 23.6875 25.0625C25.8622 25.0625 27.625 23.2997 27.625 21.125C27.625 18.9504 25.8622 17.1875 23.6875 17.1875ZM14.5001 18.5C15.9498 18.5 17.125 19.6753 17.125 21.125C17.125 22.5748 15.9498 23.75 14.5001 23.75C13.0503 23.75 11.8751 22.5748 11.8751 21.125C11.8751 19.97 12.6215 18.9908 13.658 18.6397C13.4187 18.7711 13.2446 18.9751 13.135 19.1575C12.9488 19.4697 12.8595 19.8488 12.8594 20.2239C12.8549 20.5974 12.95 20.9659 13.135 21.2904C13.3148 21.5896 13.6686 21.9466 14.1989 21.9466C14.7287 21.9464 15.0829 21.5895 15.2614 21.2891C15.4478 20.9767 15.537 20.5993 15.537 20.2239C15.5369 19.8488 15.4477 19.4711 15.2614 19.1575C15.0955 18.8794 14.7775 18.5539 14.3078 18.509C14.3713 18.5044 14.4354 18.5 14.5001 18.5ZM23.6875 18.5C25.1373 18.5 26.3125 19.6753 26.3125 21.125C26.3125 22.5748 25.1373 23.75 23.6875 23.75C22.3553 23.75 21.2578 22.7571 21.0882 21.4711C21.2876 21.7155 21.5973 21.9453 22.0213 21.9453C22.5511 21.9451 22.9054 21.5882 23.0839 21.2877C23.2703 20.9754 23.3594 20.598 23.3594 20.2227C23.3594 19.8475 23.2701 19.4698 23.0839 19.1562C22.9919 19.0021 22.8526 18.8332 22.6673 18.7051C22.9809 18.5727 23.3258 18.5 23.6875 18.5Z" fill="white"/>
</svg>
