<svg width="154" height="29" viewBox="0 0 154 29" fill="none" xmlns="http://www.w3.org/2000/svg">
<path d="M12.6786 5.61222C14.1423 5.5686 15.5919 5.90704 16.8825 6.59303C18.0277 7.23745 18.9495 8.21002 19.5266 9.38333C19.5857 9.50784 19.642 9.63355 19.6952 9.76038C19.8782 10.1962 21.2762 10.3118 21.5396 9.91858C22.4897 8.54212 23.807 7.4541 25.3441 6.77599C27.1239 5.98901 29.0578 5.60277 31.0062 5.64475C32.9526 5.60344 34.8842 5.98972 36.6621 6.77599C37.4597 7.14021 38.2043 7.6094 38.8752 8.17111C39.3214 8.54766 39.7274 8.96895 40.0864 9.42815C40.2261 9.58232 40.3574 9.74423 40.4796 9.91242C41.3773 11.3272 41.8317 12.9741 41.7855 14.6447C41.8195 16.2614 41.3788 17.8534 40.5174 19.2266C40.4937 19.2747 40.4661 19.3216 40.435 19.3653C40.178 19.7539 39.887 20.1197 39.5663 20.4585C38.7376 21.3319 37.7448 22.0372 36.6435 22.5331C34.8657 23.3193 32.9334 23.7056 30.987 23.6643C29.0386 23.7063 27.1047 23.32 25.3249 22.5331C23.7877 21.855 22.4705 20.7669 21.5204 19.3905C21.3009 19.0638 20.4083 19.243 20.4083 19.6355V22.6264C20.4083 22.9735 20.1244 23.2549 19.7742 23.2549H15.9698C15.6196 23.2549 15.3357 22.9735 15.3357 22.6264V14.4557C15.4228 13.1867 15.0137 11.933 14.1938 10.9546C13.7614 10.5391 13.2456 10.2183 12.6798 10.0137C12.1139 9.80903 11.5105 9.72506 10.9095 9.76692C10.0099 9.74127 9.1202 9.95855 8.33546 10.3954C7.60646 10.8194 7.01442 11.4406 6.62947 12.1865C6.25965 12.9536 6.05965 13.789 6.04 14.6367V22.6264C6.04 22.9735 5.75611 23.2549 5.40592 23.2549H1.60145C1.25126 23.2549 0.967375 22.9735 0.967375 22.6264V11.9184C0.967375 11.8796 0.963735 11.8407 0.956494 11.8025L0.0110729 6.80905C-0.0621661 6.4222 0.237208 6.06458 0.634268 6.06458H4.40415C4.71475 6.06458 4.97963 6.28763 5.02987 6.59146L5.57682 9.89891C5.5772 9.90173 5.58115 9.90243 5.58248 9.89991L5.58302 9.89891C5.65911 9.74806 5.74208 9.60935 5.82451 9.47107C6.53652 8.28462 7.54255 7.2981 8.74723 6.60535C9.94583 5.93523 11.3026 5.5925 12.6786 5.61222ZM31.187 6.57461C31.1582 6.18928 30.7216 6.18928 30.6929 6.57461L30.5622 8.32145C30.3383 11.3137 28.5 13.682 26.1763 13.9701L24.8233 14.1383C24.5247 14.1758 24.5246 14.7369 24.8233 14.7742L26.1763 14.9424C28.5001 15.2311 30.3385 17.5997 30.5622 20.5917L30.6929 22.3379C30.7218 22.7229 31.158 22.7229 31.187 22.3379L31.317 20.5917C31.5407 17.5992 33.3798 15.2306 35.7036 14.9424L37.0566 14.7742C37.3553 14.7369 37.3553 14.1757 37.0566 14.1383L35.7036 13.9701C33.38 13.6815 31.5409 11.3133 31.317 8.32145L31.187 6.57461Z" fill="currentColor"/>
<path d="M55.2692 5.43181C55.1482 5.21276 54.853 5.29079 54.7449 5.51639L54.7014 5.60709C54.5995 5.81978 54.3633 5.92997 54.1356 5.8631C53.941 5.80597 53.737 5.74788 53.56 5.72594L53.3317 5.68823C52.9427 5.63848 52.5509 5.61329 52.1586 5.61281C51.0993 5.58514 50.0508 5.82982 49.1151 6.32303C48.2616 6.7958 47.5285 7.45581 46.9719 8.25258C46.9418 8.29482 46.9121 8.33724 46.8827 8.37992C46.5089 8.92378 45.4249 8.7928 45.3162 8.14354L45.0562 6.59097C45.0055 6.28771 44.7408 6.06534 44.4307 6.06534H40.5813C40.1829 6.06534 39.8832 6.42517 39.9587 6.8129L40.0839 7.45644C40.1098 7.58975 40.1791 7.71061 40.2783 7.80426C40.7929 8.29029 41.2476 8.83528 41.6329 9.42791C42.6528 10.9963 43.1802 12.8293 43.1484 14.6949C43.179 16.5525 42.6515 18.3771 41.6329 19.9367C41.4635 20.1951 41.2788 20.4432 41.0798 20.6798C40.9805 20.7978 40.9228 20.9456 40.9228 21.0993V22.6268C40.9228 22.9739 41.2067 23.2553 41.5569 23.2553H45.3613C45.7115 23.2553 45.9954 22.9739 45.9954 22.6268V15.8074C45.9539 14.6528 46.1954 13.5054 46.6992 12.4637C47.1109 11.6289 47.7762 10.9431 48.6015 10.5027C48.9784 10.3048 49.3788 10.1549 49.7935 10.0564C50.3054 9.92809 50.8317 9.86473 51.3597 9.86787H53.7121C54.0623 9.86787 54.3462 10.1493 54.3462 10.4964V11.0746C54.3462 11.1232 54.386 11.1626 54.435 11.1626C54.6489 11.1642 54.857 11.0932 55.0247 10.9615C55.1373 10.8727 55.2282 10.7599 55.2908 10.6316C55.3534 10.5032 55.386 10.3625 55.3861 10.2198V5.88307C55.3858 5.72533 55.3456 5.57017 55.2692 5.43181Z" fill="currentColor"/>
<path d="M70.0907 0C70.4407 0.000220833 70.7248 0.281533 70.7248 0.628518V9.17492C70.7248 9.18855 70.7419 9.1939 70.7502 9.1829C71.4312 8.12259 72.3595 7.24021 73.4577 6.61169C74.6472 5.94818 75.9921 5.60623 77.3573 5.61922C78.8188 5.57559 80.2664 5.91353 81.5542 6.59944C81.681 6.66858 81.8015 6.74425 81.922 6.82596C82.0215 6.88937 82.1192 6.95568 82.2143 7.02482C82.2872 7.07736 82.3893 7.00301 82.357 6.91986C82.1966 6.50805 82.5028 6.06544 82.9479 6.06544H86.7264C86.9908 6.06559 87.228 6.22819 87.3205 6.47361L91.1675 16.6655C91.3729 17.2083 92.1465 17.2103 92.3538 16.6686L96.2623 6.47053C96.3555 6.22663 96.5914 6.06554 96.8545 6.06544H100.942C101.207 6.06549 101.444 6.2277 101.537 6.47298L105.396 16.6821C105.602 17.2267 106.38 17.2259 106.584 16.6809L110.416 6.47669C110.508 6.22956 110.747 6.06593 111.013 6.06729L114.222 6.08447C114.54 6.0863 114.673 6.52477 114.426 6.72344C113.486 7.47842 112.711 8.42233 112.155 9.49716C111.336 11.105 110.927 12.8875 110.963 14.6885C110.959 15.5299 111.041 16.3696 111.209 17.194C111.234 17.3145 111.225 17.4396 111.18 17.5543L109.116 22.8532C109.022 23.0954 108.787 23.2551 108.524 23.2552H104.188C103.926 23.255 103.691 23.0951 103.597 22.8532L99.4644 12.2641C99.2564 11.7299 98.4942 11.728 98.2831 12.261L94.0836 22.8562C93.9885 23.0967 93.7539 23.255 93.4933 23.2552H89.1562C88.893 23.2551 88.6578 23.0944 88.564 22.8513L85.4671 14.8266C85.3923 14.6394 85.112 14.6928 85.112 14.8942V22.6266C85.112 22.9737 84.828 23.2551 84.478 23.2552H80.6735C80.3228 23.2551 80.0394 22.9738 80.0394 22.6266V14.4559C80.125 13.1912 79.7211 11.9418 78.9101 10.9616C78.4815 10.5483 77.9698 10.2284 77.408 10.0237C76.8468 9.81921 76.2483 9.73386 75.6516 9.77333C74.7436 9.74467 73.8445 9.96207 73.0519 10.4018C72.3208 10.8233 71.7279 11.4458 71.3462 12.1935C71.0862 12.7247 70.9093 13.2897 70.8186 13.8691C70.8129 13.9057 70.8041 13.9415 70.7933 13.9759C70.7597 14.0806 70.7248 14.1866 70.7248 14.2963V22.6015C70.7248 22.9484 70.4407 23.2298 70.0907 23.23H68.7313C68.4865 23.23 68.3223 22.9315 68.3216 22.6892V18.7678C68.3223 18.6068 68.2811 18.4482 68.2024 18.3074C68.1232 18.1667 68.0097 18.0479 67.8715 17.9631C67.7332 17.8797 67.5753 17.8322 67.413 17.8256C67.2513 17.819 67.0909 17.8533 66.9457 17.925C66.7948 18.0008 66.6407 18.0723 66.4854 18.1387C66.0922 18.306 65.6776 18.0043 65.6776 17.5807V10.4964C65.6776 10.1493 65.3935 9.86792 65.0435 9.86786H60.0657C59.7155 9.86786 59.4316 10.1492 59.4316 10.4964V16.1089C59.4316 17.4413 59.7108 18.3655 60.2688 18.8997C60.8269 19.4338 61.7971 19.7044 63.1729 19.7044C63.6926 19.7093 64.2122 19.6736 64.7258 19.5976C64.982 19.566 65.2362 19.5193 65.4867 19.4589L65.6769 19.4086C65.9483 19.3406 66.2159 19.2596 66.479 19.1661C66.9222 19.0086 67.4206 19.3167 67.4206 19.7836V22.2627C67.4206 22.5205 67.2621 22.7539 67.0167 22.8402C66.5843 22.9926 66.1436 23.1205 65.6959 23.2239L65.0619 23.3687C64.9579 23.3936 64.852 23.4124 64.7448 23.4252C63.8574 23.597 62.9548 23.6834 62.0503 23.683C60.5356 23.7451 59.0274 23.4498 57.6501 22.8218C56.582 22.3069 55.7067 21.4678 55.1516 20.4268C54.5965 19.312 54.3205 18.081 54.3466 16.838L54.3462 10.4964C54.3462 10.1493 54.0623 9.86787 53.7121 9.86787H51.3597C50.8317 9.86473 50.3054 9.92809 49.7935 10.0564C49.3816 10.1514 48.9832 10.2966 48.6077 10.4897C47.7825 10.9301 47.1171 11.616 46.7055 12.4507C46.2739 13.343 46.0308 14.3222 45.9958 15.3103L46.0014 12.2892C46.0015 12.2545 45.9991 12.2198 45.9934 12.1855L45.7674 10.8377C45.7506 10.7374 45.7584 10.6341 45.7922 10.5381C46.0757 9.73147 46.4726 8.96826 46.9717 8.27142C47.5283 7.47465 48.2615 6.81439 49.1149 6.34162C50.0505 5.84843 51.0995 5.60383 52.1589 5.6315C52.5511 5.63199 52.9428 5.65725 53.3317 5.70699L53.5503 5.74321C53.5552 5.74402 53.5601 5.74014 53.5602 5.73523C53.5602 5.7304 53.5641 5.72658 53.5689 5.72724C53.7398 5.75567 53.907 5.98426 54.0698 6.1882C54.1783 6.32402 54.392 6.3567 54.4494 6.19311L54.5274 5.97092L54.9485 5.09137L56.3423 1.91747C56.4431 1.68822 56.6715 1.53999 56.9238 1.53999H58.7976C59.1477 1.54006 59.4316 1.82143 59.4316 2.16851V5.46823C59.4316 5.81535 59.7155 6.09675 60.0657 6.09675H65.0435C65.3935 6.09668 65.6776 5.81531 65.6776 5.46823V0.628518C65.6776 0.281397 65.9616 0 66.3116 0H70.0907ZM44.4307 6.06534C44.7408 6.06534 45.0055 6.28771 45.0562 6.59097L45.7129 10.5252C45.7317 10.6378 45.7185 10.7532 45.6807 10.861C45.6546 10.9355 45.6305 11.0108 45.6089 11.0868C45.301 12.1319 45.0849 13.2017 44.9636 14.2834C44.945 14.45 44.9974 14.6167 45.1054 14.7456L45.8489 15.6329C45.9435 15.7457 45.9953 15.8878 45.9953 16.0344L45.9954 22.6268C45.9954 22.9739 45.7115 23.2553 45.3613 23.2553H41.5569C41.2067 23.2553 40.9228 22.9739 40.9228 22.6268V21.0993C40.9228 20.9456 40.9805 20.7978 41.0798 20.6798C41.2788 20.4432 41.4635 20.1951 41.6329 19.9367C42.6515 18.3771 43.179 16.5525 43.1484 14.6949C43.1802 12.8293 42.6528 10.9963 41.6329 9.42791C41.2476 8.83528 40.7929 8.29029 40.2783 7.80426C40.1791 7.71061 40.1098 7.58975 40.0839 7.45644L39.9587 6.8129C39.8832 6.42517 40.1829 6.06534 40.5813 6.06534H44.4307Z" fill="currentColor"/>
<path d="M120.487 5.57498C122.028 5.55317 123.547 5.93954 124.888 6.69392C125.689 7.15657 126.415 7.7328 127.042 8.40167C127.451 8.83811 128.286 8.63271 128.355 8.04077L128.52 6.62271C128.557 6.30518 128.828 6.06567 129.15 6.06604L132.333 6.06969C132.334 6.06969 132.334 6.06754 132.334 6.06754L132.336 6.06541L133.646 6.07092L133.853 6.07153L133.854 6.07215L137.522 6.08869C137.774 6.08983 138.002 6.23974 138.101 6.46929C139.995 10.8321 141.267 13.8805 142.797 17.3726C143.015 17.8709 143.724 17.8761 143.949 17.3809C145.633 13.6773 147.251 9.95285 148.905 6.23234C149.006 6.0047 149.233 5.85775 149.484 5.85746L153.352 5.85303C153.835 5.85248 154.146 6.36577 153.93 6.79473C150.25 14.1177 147.602 27.2058 138.759 28.9776C138.727 28.9841 138.693 28.988 138.661 28.9891C136.663 29.0608 135.601 28.7968 134.249 27.6194C134.117 27.5039 134.043 27.3355 134.043 27.1605V25.5698C134.043 25.031 134.715 24.7089 135.21 24.9329C137.167 25.8197 139.767 25.4876 141.289 23.0448C141.53 22.6597 141.225 22.1932 140.769 22.1932H140.079C139.813 22.1932 139.576 22.0285 139.482 21.7814C138.046 17.968 136.282 14.2622 134.5 10.5827C134.225 10.0144 133.371 10.157 133.298 10.7832L132.854 14.6164C132.848 14.6643 132.848 14.7127 132.854 14.7606L133.765 22.5542C133.809 22.9275 133.514 23.2551 133.135 23.2551H129.156C128.831 23.2551 128.559 23.0116 128.525 22.6911L128.369 21.1911C128.307 20.594 127.461 20.3805 127.047 20.8187C126.429 21.4744 125.714 22.0397 124.925 22.4946C123.564 23.2307 122.038 23.6166 120.487 23.6166C118.936 23.6166 117.409 23.2307 116.048 22.4946C114.76 21.7523 113.712 20.6624 113.024 19.352C112.693 18.7297 112.442 18.0688 112.276 17.3849C112.112 16.7786 112.012 16.1571 111.977 15.5306C111.939 15.2667 111.94 14.9397 111.94 14.6381C111.902 12.9902 112.275 11.3586 113.024 9.88685C113.716 8.57966 114.763 7.49082 116.048 6.74426C116.207 6.64999 116.372 6.56199 116.537 6.48029C117.765 5.88066 119.117 5.5706 120.487 5.57498ZM121.932 10.4779C121.217 10.4604 120.511 10.6384 119.891 10.9929C119.307 11.3376 118.832 11.8387 118.522 12.4383C118.172 13.1277 117.997 13.8918 118.014 14.6633C117.997 15.429 118.17 16.1875 118.522 16.8699C118.834 17.4648 119.309 17.9609 119.891 18.3025C120.51 18.6582 121.217 18.8368 121.932 18.818C122.716 18.8235 123.489 18.6376 124.183 18.2773C124.933 17.8819 125.595 17.3415 126.131 16.6876C126.602 16.1408 126.994 15.531 127.293 14.8769C127.363 14.7252 127.363 14.5511 127.294 14.3993C126.993 13.74 126.601 13.1243 126.131 12.5703C125.592 11.93 124.93 11.4024 124.183 11.0181C123.489 10.6578 122.716 10.4725 121.932 10.4779Z" fill="currentColor"/>
</svg>
