<svg width="36" height="35" viewBox="0 0 36 35" fill="none" xmlns="http://www.w3.org/2000/svg">
<path d="M27.34 22.8419C26.9 21.5748 25.8745 20.9327 24.8845 20.3118C24.023 19.7711 23.2095 19.2603 22.6775 18.343C21.211 15.8023 20.4055 14.2692 18.003 14.2692C15.6005 14.2692 14.7925 15.8028 13.3225 18.3425C12.79 19.2618 11.9725 19.7737 11.11 20.3153C10.12 20.9367 9.0965 21.5773 8.655 22.8419C8.48321 23.2979 8.39675 23.7821 8.4 24.27C8.4 26.3266 10.0225 28 11.82 28C13.6175 28 15.9855 27.0848 18.008 27.0848C20.0305 27.0848 22.3655 28 24.1855 28C26.0055 28 27.6 26.3266 27.6 24.27C27.6014 23.7818 27.5133 23.2976 27.34 22.8419Z" fill="white"/>
<path d="M8.8 19.1154C10.3464 19.1154 11.6 17.4881 11.6 15.4808C11.6 13.4734 10.3464 11.8462 8.8 11.8462C7.2536 11.8462 6 13.4734 6 15.4808C6 17.4881 7.2536 19.1154 8.8 19.1154Z" fill="white"/>
<path d="M14.4 14.2692C15.9464 14.2692 17.2 12.642 17.2 10.6346C17.2 8.62727 15.9464 7 14.4 7C12.8536 7 11.6 8.62727 11.6 10.6346C11.6 12.642 12.8536 14.2692 14.4 14.2692Z" fill="white"/>
<path d="M21.6 14.2692C23.1464 14.2692 24.4 12.642 24.4 10.6346C24.4 8.62727 23.1464 7 21.6 7C20.0536 7 18.8 8.62727 18.8 10.6346C18.8 12.642 20.0536 14.2692 21.6 14.2692Z" fill="white"/>
<path d="M27.2 19.1154C28.7464 19.1154 30 17.4881 30 15.4808C30 13.4734 28.7464 11.8462 27.2 11.8462C25.6536 11.8462 24.4 13.4734 24.4 15.4808C24.4 17.4881 25.6536 19.1154 27.2 19.1154Z" fill="white"/>
</svg>
